<svg viewBox="120 140 440 440" xmlns="http://www.w3.org/2000/svg">
  <defs><clipPath id="c"><circle cx="340" cy="360" r="168"/></clipPath></defs>
  <circle cx="340" cy="360" r="220" fill="#EBAA20"/>
  <circle cx="340" cy="360" r="210" fill="#FFFFFF"/>
  <circle cx="340" cy="360" r="168" fill="#254857"/>
  <g clip-path="url(#c)">
    <path d="M172 430 L172 528 L508 528 L508 430 L480 420 L460 390 L448 400 L436 370 L424 382 L410 350 L396 365 L382 330 L368 348 L354 310 L340 330 L326 308 L312 328 L298 345 L284 326 L270 348 L256 335 L242 360 L228 372 L214 358 L200 375 L186 395 Z" fill="#5790A1"/>
    <polyline points="326,308 318,340 308,345 298,332 290,348 282,344 272,360 264,354 254,372 246,366 238,380" fill="none" stroke="#EBAA20" stroke-width="1.8" stroke-linecap="round" stroke-linejoin="round"/>
    <polyline points="354,310 348,335 340,330 334,348 326,344 318,360 308,365 302,378" fill="none" stroke="#EBAA20" stroke-width="1.8" stroke-linecap="round" stroke-linejoin="round"/>
    <polyline points="382,330 376,350 368,348 360,365 352,360 344,374" fill="none" stroke="#EBAA20" stroke-width="1.5" stroke-linecap="round" stroke-linejoin="round"/>
    <polyline points="410,350 404,368 396,365 388,378 380,374 372,386" fill="none" stroke="#EBAA20" stroke-width="1.4" stroke-linecap="round" stroke-linejoin="round"/>
    <polyline points="436,370 428,385 420,382 412,392 404,388 396,398 388,394" fill="none" stroke="#EBAA20" stroke-width="1.2" stroke-linecap="round" stroke-linejoin="round"/>
  </g>
  <circle cx="340" cy="360" r="168" fill="none" stroke="#EBAA20" stroke-width="1.5"/>
</svg>
